<svg width="26" height="24" viewBox="0 0 26 24" fill="none" xmlns="http://www.w3.org/2000/svg">
<path d="M22.8681 3.35655C22.298 2.76797 21.621 2.30107 20.876 1.98251C20.1309 1.66396 19.3323 1.5 18.5258 1.5C17.7194 1.5 16.9208 1.66396 16.1757 1.98251C15.4307 2.30107 14.7537 2.76797 14.1836 3.35655L13.0004 4.57749L11.8171 3.35655C10.6655 2.16822 9.10352 1.50062 7.47486 1.50062C5.8462 1.50062 4.28424 2.16822 3.13261 3.35655C1.98097 4.54489 1.33398 6.15662 1.33398 7.83718C1.33398 9.51774 1.98097 11.1295 3.13261 12.3178L4.31584 13.5387L13.0004 22.5L21.6849 13.5387L22.8681 12.3178C23.4385 11.7295 23.891 11.031 24.1997 10.2622C24.5084 9.49339 24.6673 8.66936 24.6673 7.83718C24.6673 7.00499 24.5084 6.18096 24.1997 5.41216C23.891 4.64336 23.4385 3.94486 22.8681 3.35655V3.35655Z" stroke="#5B6773" stroke-width="2" stroke-linecap="round" stroke-linejoin="round"/>
</svg>
